<svg xmlns="http://www.w3.org/2000/svg" xmlns:xlink="http://www.w3.org/1999/xlink" version="1.1" width="249.4210516078981" height="274.21052580394905" enable-background="new 0 0 432 432" xml:space="preserve" style=""><rect id="backgroundrect" width="100%" height="100%" x="0" y="0" fill="none" stroke="none" class="" style=""/>






<g class="currentLayer" style=""><title>Layer 1</title><g id="Layer_1" class="">
</g><g id="Layer_2" class="">
</g><g id="Layer_3" class="">
</g><g id="Layer_4" class="">
</g><g id="Layer_5" class="">
</g><g id="Layer_6" class="">
	<g id="svg_1">
		<path d="M124.55263376235962,256.0056847877502 c-0.3910000000000001,0.2850000000000001 -0.799,0.538 -1.2,0.806 c0.3850000000000001,0.09600000000000006 0.783,0.16200000000000006 1.2,0.16200000000000006 s0.8140000000000002,-0.06600000000000003 1.2,-0.16200000000000006 C125.35163376235963,256.54368478775024 124.94363376235961,256.29068478775025 124.55263376235962,256.0056847877502 z" id="svg_2"/>
		<path d="M239.76563376235964,126.17468478775024 l-2.41,-11.372 c-0.5730000000000002,-2.701 -3.223,-4.424 -5.928,-3.855 l-44.687,9.466 l-8.436,-16.02 c-0.8640000000000002,-1.6420000000000003 -2.567,-2.67 -4.424,-2.67 h-10.204 l-11.544,-43.288 c-0.5840000000000002,-2.189 -2.565,-3.712 -4.831,-3.712 h-3.417 V23.056684787750243 c0,-2.761 -2.238,-5 -5,-5 s-5,2.239 -5,5 v31.667 H115.4726337623596 V13.890684787750246 c0,-2.761 -2.239,-5 -5,-5 s-5,2.239 -5,5 v40.833 h-3.67 c-2.265,0 -4.248,1.5230000000000001 -4.831,3.712 l-11.543,43.288 H75.05263376235962 c-1.856,0 -3.56,1.028 -4.424,2.67 l-8.489,16.123 l-45.171,-9.569 c-2.702,-0.5730000000000002 -5.355,1.153 -5.927,3.855 l-2.41,11.372 c-0.275,1.2970000000000002 -0.023000000000000013,2.6510000000000002 0.7000000000000002,3.763 c0.7230000000000002,1.111 1.858,1.891 3.1550000000000002,2.166 l39.183,8.3 l-6.97,13.236 l-15.834,12.019 c-1.933,1.467 -2.533,4.111 -1.424,6.269 l41.2,80.13 c4.354,-0.9470000000000002 8.394,-3.047 11.697000000000001,-6.175 c1.929,-1.826 4.947,-1.826 6.876,0 c4.603,4.358 10.623,6.759 16.951,6.759 c6.328,0 12.348,-2.4 16.951,-6.759 c1.928,-1.826 4.947,-1.826 6.875,0 c4.603,4.358 10.623,6.759 16.951,6.759 s12.349,-2.4 16.951,-6.759 c1.928,-1.826 4.947,-1.826 6.875,0 c3.3040000000000003,3.128 7.343,5.228 11.696,6.175 l41.201,-80.13 c1.11,-2.158 0.51,-4.802 -1.424,-6.269 l-16.119,-12.234 l-6.91,-13.123 l38.698,-8.198 c1.298,-0.275 2.433,-1.054 3.1550000000000002,-2.166 C239.7886337623596,128.82568478775025 240.03963376235964,127.47168478775023 239.76563376235964,126.17468478775024 zM170.86463376235963,111.72368478775024 l17.808,29.973 l-39.49,-29.973 H170.86463376235963 zM78.07063376235962,111.72368478775024 h21.852 l-36.399,27.627 L78.07063376235962,111.72368478775024 zM119.55263376235962,195.16168478775023 l-60.398,16.578 l-20.902,-40.653 L119.55263376235962,109.37968478775025 V195.16168478775023 zM127.57463376235961,95.32468478775024 c-0.041000000000000016,-0.031000000000000014 -0.08600000000000003,-0.05100000000000002 -0.127,-0.08100000000000003 c-0.09800000000000006,-0.06900000000000003 -0.19900000000000007,-0.129 -0.3020000000000001,-0.19100000000000006 c-0.15900000000000006,-0.09700000000000006 -0.3190000000000001,-0.18700000000000006 -0.4860000000000001,-0.264 c-0.10700000000000003,-0.05000000000000002 -0.21500000000000005,-0.09600000000000006 -0.3270000000000001,-0.139 c-0.18500000000000005,-0.07 -0.3710000000000001,-0.126 -0.562,-0.17400000000000004 c-0.10300000000000002,-0.026000000000000013 -0.203,-0.056000000000000015 -0.3080000000000001,-0.07500000000000002 c-0.2990000000000001,-0.055000000000000014 -0.6010000000000002,-0.09100000000000005 -0.904,-0.09100000000000005 c-0.002000000000000001,0 -0.004000000000000002,0 -0.007000000000000004,0 c-0.002000000000000001,0 -0.003000000000000002,0 -0.005000000000000002,0 c-0.3040000000000001,0 -0.6060000000000002,0.03600000000000001 -0.905,0.09100000000000005 c-0.10600000000000002,0.020000000000000007 -0.20700000000000005,0.05000000000000002 -0.3100000000000001,0.07600000000000003 c-0.19000000000000006,0.048000000000000015 -0.3760000000000001,0.10400000000000002 -0.561,0.17400000000000004 c-0.11100000000000003,0.04300000000000002 -0.22000000000000006,0.08900000000000004 -0.3270000000000001,0.139 c-0.16700000000000007,0.07800000000000003 -0.3290000000000001,0.16800000000000007 -0.4890000000000001,0.266 c-0.101,0.06200000000000002 -0.201,0.12000000000000002 -0.2960000000000001,0.18800000000000006 c-0.042000000000000016,0.030000000000000013 -0.08800000000000004,0.05100000000000002 -0.13,0.08300000000000003 l-8.554,6.492 c-0.3000000000000001,-0.056000000000000015 -0.6060000000000002,-0.09300000000000005 -0.923,-0.09300000000000005 h-16.275 l9.867,-37 h37.817 l9.867,37 h-16.446 c-0.265,0 -0.52,0.03800000000000001 -0.772,0.07800000000000003 L127.57463376235961,95.32468478775024 zM210.8536337623596,171.08568478775024 l-20.903,40.653 L129.55263376235962,195.16168478775023 v-85.782 L210.8536337623596,171.08568478775024 z" id="svg_3"/>
	</g>
	<path d="M226.4956337623596,266.6406847877502 c-7.396,0 -14.49,-2.33 -20.389,-6.635 c-5.898,4.305 -12.993,6.635 -20.389,6.635 s-14.49,-2.33 -20.389,-6.635 c-5.898,4.305 -12.993,6.635 -20.389,6.635 s-14.49,-2.33 -20.389,-6.635 c-5.899,4.305 -12.993,6.635 -20.389,6.635 c-7.396,0 -14.49,-2.33 -20.389,-6.635 c-5.899,4.305 -12.993,6.635 -20.389,6.635 s-14.49,-2.33 -20.389,-6.635 c-5.899,4.305 -12.993,6.635 -20.389,6.635 c-2.761,0 -5,-2.238 -5,-5 s2.239,-5 5,-5 c6.329,0 12.349,-2.4 16.951,-6.759 c1.929,-1.826 4.947,-1.826 6.876,0 c4.603,4.358 10.623,6.759 16.951,6.759 s12.348,-2.4 16.951,-6.759 c1.929,-1.826 4.947,-1.826 6.876,0 c4.603,4.358 10.623,6.759 16.951,6.759 c6.328,0 12.348,-2.4 16.951,-6.759 c1.928,-1.826 4.947,-1.826 6.875,0 c4.603,4.358 10.623,6.759 16.951,6.759 s12.349,-2.4 16.951,-6.759 c1.928,-1.826 4.947,-1.826 6.875,0 c4.603,4.358 10.623,6.759 16.951,6.759 s12.349,-2.4 16.951,-6.759 c1.928,-1.826 4.947,-1.826 6.875,0 c4.603,4.358 10.623,6.759 16.951,6.759 c2.762,0 5,2.238 5,5 S229.2576337623596,266.6406847877502 226.4956337623596,266.6406847877502 z" id="svg_4"/>
</g></g></svg>